Original French audio. Spanish and Portugues(BR) subtitles. DVDrip.
 
http://www.imdb.com/title/tt0055599/

When Jill becomes a movie star, she soon discovers that her private life is destroyed by persistent fans that won't leave her alone. Her mothers ex-lover, Fabio, tries to protect her.

Director:
Louis Malle

Writers:
Jean-Paul Rappeneau (screenplay), Louis Malle (screenplay), and Jean Ferry (screenplay)

Stars:
Brigitte Bardot, Marcello Mastroianni and Nicolas Bataille

General
Complete name : Vie Privée 1962.DVDrip.by_Galmuchet.avi
Format : AVI
Format/Info : Audio Video Interleave
File size : 900 MiB
Duration : 1h 30mn
Overall bit rate : 1 396 Kbps
Writing application : FairUse Wizard - http://fairusewizard.com
Writing library : The best and REALLY easy backup tool

Video
ID : 0
Format : MPEG-4 Visual
Format profile : Advanced Simple@L5
Format settings, BVOP : Yes
Format settings, QPel : No
Format settings, GMC : No warppoints
Format settings, Matrix : Default (MPEG)
Muxing mode : Packed bitstream
Codec ID : XVID
Codec ID/Hint : XviD
Duration : 1h 30mn
Bit rate : 1 258 Kbps
Width : 608 pixels
Height : 448 pixels
Display aspect ratio : 4:3
Frame rate : 25.000 fps
Color space : YUV
Chroma subsampling : 4:2:0
Bit depth : 8 bits
Scan type : Progressive
Bits/(Pixel*Frame) : 0.185
Stream size : 812 MiB (90%)
Writing library : XviD 1.2.0.dev47 (UTC 2006-11-01)

Audio
ID : 1
Format : MPEG Audio
Format version : Version 1
Format profile : Layer 3
Mode : Joint stereo
Mode extension : MS Stereo
Codec ID : 55
Codec ID/Hint : MP3
Duration : 1h 30mn
Bit rate mode : Constant
Bit rate : 128 Kbps
Channel(s) : 2 channels
Sampling rate : 48.0 KHz
Stream size : 82.6 MiB (9%)
Alignment : Aligned on interleaves
Interleave, duration : 40 ms (1.00 video frame)
Interleave, preload duration : 504 ms
Writing library : LAME3.97
Encoding settings : -m j -V 4 -q 2 -lowpass 17 -b 128

